# xmcd
#
# Track frame offsets:
#	150
#	27356
#	51721
#	74513
#	96801
#	121431
#	140673
#	163226
#	186043
#	217441
#	241430
#	263148
#	278064
#	303779
#	325844
#
# Disc length: 4685 seconds
#
# Revision: 0
# Processed by: cddbd v1.5.2PL0 Copyright (c) Steve Scherf et al.
# Submitted via: EZCDAudioConverter 8.0.2.1
#
DISCID=ef124b0f
DTITLE=Hạ Vy, Phương Diễm Hạnh, Hương Thủy - Tam Ca Đặc Biệt. Chỉ Hai Đứa Mình
DTITLE=Thôi Nhé
DYEAR=1900
DGENRE=
TTITLE0=Phương Diễm Hạnh - Trăng tàn trên hè phố
TTITLE1=Hạ Vy - Bông hồng cài áo
TTITLE2=Hương Thủy - LK Mẹ từ bi
TTITLE3=Phương Diễm Hạnh - Hạ Buồn
TTITLE4=Hạ Vy - Tạ ơn mẹ
TTITLE5=Hương Thủy - Sóc Sbai Sóc Trăng
TTITLE6=Phương Diễm Hạnh - Thu tím lá vàng
TTITLE7=Hạ Vy - Mẹ từ bi
TTITLE8=Hương Thủy - Chúa tôi
TTITLE9=Phương Diễm Hạnh - Tình hậu phương
TTITLE10=Hạ Vy - Đời tôi là ni cô
TTITLE11=Hương Thủy - Lý quạ kêu
TTITLE12=Phương Diễm Hạnh - Chỉ Hai Đứa Mình Thôi Nhé
TTITLE13=Hạ Vy - Nhánh đường cứu khổ
TTITLE14=Hương Thủy - Công ơn cha mẹ
EXTD=
EXTT0=
EXTT1=
EXTT2=
EXTT3=
EXTT4=
EXTT5=
EXTT6=
EXTT7=
EXTT8=
EXTT9=
EXTT10=
EXTT11=
EXTT12=
EXTT13=
EXTT14=
PLAYORDER=
